<svg version="1.1"  width="20px" height="11px" xmlns="http://www.w3.org/2000/svg">
  <g transform="matrix(1 0 0 1 -114 -738 )">
    <path d="M 19.9431818181818 5.56015625  C 17.6438210227273 3.03359375  14.3856534090909 0  10 0  C 6.36452414772727 0  3.53249289772727 2.096875  0.0568181818181818 5.5  C 3.04865056818182 8.408984375  5.56107954545455 11  10 11  C 14.4344815340909 11  17.6970880681818 7.7171875  19.9431818181818 5.56015625  Z M 13.9772727272727 5.5  C 13.9772727272727 7.665625  12.1928267045455 9.423046875  10 9.423046875  C 7.80717329545455 9.423046875  6.02272727272727 7.661328125  6.02272727272727 5.5  C 6.02272727272727 3.334375  7.80717329545455 1.576953125  10 1.576953125  C 12.1928267045455 1.576953125  13.9772727272727 3.338671875  13.9772727272727 5.5  Z " fill-rule="nonzero" fill="#000000" stroke="none" transform="matrix(1 0 0 1 114 738 )" />
    <path d="M 3.92489346590909 2.5  C 3.134765625 2.5  2.5 1.865234375  2.5 1.07954545454545  C 2.5 0.728870738636364  2.62872869318182 0.409268465909091  2.83735795454546 0.160688920454545  C 2.72638494318182 0.142933238636364  2.61541193181818 0.134055397727273  2.5 0.134055397727273  C 1.22159090909091 0.134055397727273  0.178444602272727 1.19495738636364  0.178444602272727 2.5  C 0.178444602272727 3.80504261363636  1.22159090909091 4.86594460227273  2.5 4.86594460227273  C 3.77840909090909 4.86594460227273  4.82155539772727 3.80504261363637  4.82155539772727 2.5  C 4.82155539772727 2.39790482954545  4.81267755681818 2.29580965909091  4.80379971590909 2.19371448863636  C 4.55965909090909 2.38458806818182  4.2578125 2.5  3.92489346590909 2.5  Z " fill-rule="nonzero" fill="#000000" stroke="none" transform="matrix(1 0 0 1 122 741 )" />
  </g>
</svg>